<?xml version="1.0" encoding="UTF-8" standalone="no"?>
<!-- Created with Inkscape (http://www.inkscape.org/) -->

<svg
   version="1.1"
   id="svg1"
   width="1024"
   height="1024"
   viewBox="0 0 1024 1024"
   xmlns="http://www.w3.org/2000/svg"
   xmlns:svg="http://www.w3.org/2000/svg">
  <defs
     id="defs1" />
  <g
     id="g1">
    <g
       id="g12">
      <path
         style="fill:#14b089"
         d="m 439.19286,746.64839 c -28.65065,-3.68021 -51.45552,-23.07613 -58.21742,-49.51487 -2.40266,-9.39433 -2.63195,-25.99444 -0.48482,-35.10019 4.45829,-18.9071 17.44866,-35.12232 35.00938,-43.70041 10.61638,-5.18591 18.40571,-6.96199 30.5,-6.95447 12.76458,0.008 21.57766,2.00017 32.5,7.34671 14.75694,7.22359 25.29315,17.91301 32.03851,32.50437 10.17681,22.01419 7.55643,49.69543 -6.5039,68.70602 -14.06568,19.01782 -40.37342,29.85582 -64.84175,26.71284 z m 22.30194,-28.0028 c 15.01618,-5.61827 24.08349,-18.70402 25.23323,-36.41606 0.91029,-14.02324 -4.09377,-27.17726 -13.51168,-35.51778 -8.77876,-7.77448 -21.2771,-11.23802 -32.85487,-9.10473 -8.25659,1.52134 -13.30556,4.05468 -19.3509,9.70939 -19.90367,18.61754 -15.48117,57.05733 7.98942,69.44301 8.45943,4.46413 23.30192,5.32567 32.4948,1.88617 z m -227.0354,22.83394 c -0.2628,-0.6875 -0.36118,-29.6 -0.21861,-64.25 l 0.25921,-63 14.14077,-0.27679 14.14077,-0.27679 18.88217,25.27679 c 10.38519,13.90223 24.04685,32.33922 30.35923,40.97108 6.31238,8.63187 11.92706,15.56645 12.47706,15.41019 0.64494,-0.18323 1,-14.27691 1,-39.69429 0,-21.67561 0.1125,-39.98539 0.25,-40.68841 0.19165,-0.97989 3.45921,-1.21328 14,-1 l 13.75,0.27822 0.25735,64.25 0.25735,64.25 h -14.40243 -14.40243 l -9.34356,-12.75 c -9.41814,-12.85178 -43.77619,-58.95079 -48.46145,-65.02188 -1.38875,-1.79953 -2.94797,-3.01048 -3.46492,-2.69098 C 263.37875,662.61349 263,678.94224 263,702.78855 v 39.94098 h -14.03138 c -10.30361,0 -14.15834,-0.33209 -14.50922,-1.25 z m 302.01059,0.0276 c -0.26863,-0.70269 -0.37177,-29.6276 -0.2292,-64.2776 l 0.25921,-63 34.5,0.0829 c 32.02862,0.0769 34.94758,0.23055 40.74814,2.14456 20.66155,6.8177 32.59354,26.13517 29.29807,47.43254 -2.09163,13.51736 -8.96268,23.95397 -19.79524,30.06749 -2.88803,1.62991 -5.2506,3.48301 -5.25015,4.11801 4.6e-4,0.635 5.62546,10.52541 12.5,21.9787 C 635.37537,731.50698 641,741.29448 641,741.80369 c 0,0.52779 -6.63474,0.92584 -15.43191,0.92584 h -15.4319 l -1.88227,-2.75 c -1.03525,-1.5125 -6.51819,-10.96705 -12.18431,-21.01012 -7.35495,-13.03645 -10.91583,-18.41416 -12.44761,-18.79862 -1.18005,-0.29617 -5.51525,-0.40412 -9.63378,-0.23988 l -7.48822,0.29862 -0.5,21 -0.5,21 -14.2708,0.27758 c -10.86498,0.21134 -14.38736,-0.0273 -14.75921,-1 z m 63.16178,-66.91508 c 12.78662,-3.21971 17.56382,-19.10585 8.69682,-28.92055 -2.03769,-2.25548 -5.06651,-4.33034 -7.17705,-4.91655 -2.00835,-0.55784 -10.71852,-1.01676 -19.35595,-1.01982 l -15.7044,-0.006 -0.2956,17.01283 c -0.16257,9.35705 -0.14559,17.45705 0.0377,18 0.46707,1.38323 28.19795,1.25989 33.79844,-0.15033 z M 659,742.36135 c 0,-0.79725 31.81514,-85.14814 39.46462,-104.63182 4.21074,-10.725 8.31415,-20.5125 9.11869,-21.75 1.41548,-2.17721 1.97568,-2.25 17.3173,-2.25 11.47137,0 16.1373,0.34557 16.87743,1.25 C 743.60187,617.20822 790,738.82297 790,741.37474 c 0,1.07712 -2.95711,1.35479 -14.42815,1.35479 H 761.1437 l -2.07185,-5.5 c -1.13952,-3.025 -3.0317,-8.0875 -4.20486,-11.25 -1.17315,-3.1625 -2.57825,-6.3125 -3.12244,-7 -0.74603,-0.94248 -7.29413,-1.24623 -26.61699,-1.23469 -14.09516,0.008 -26.11819,0.34592 -26.71784,0.75 -0.59965,0.40408 -3.0919,5.90969 -5.53832,12.23469 l -4.44804,11.5 -14.71168,0.27673 C 665.62026,742.65847 659,742.59325 659,742.36135 Z m 83.33654,-50.38182 c 0.75615,-1.24757 -16.07005,-43.75 -17.3201,-43.75 -1.01044,0 -18.01644,41.13588 -18.01644,43.58002 0,1.0996 34.67202,1.26638 35.33654,0.16998 z M 333.90116,571.57981 C 324.05554,569.55264 319.15114,558.23408 324,548.72953 c 1.97344,-3.86826 2,-5.89377 2,-152.51213 V 247.62559 l 31.75,0.30197 c 31.32846,0.29796 31.81638,0.33436 36.75,2.74191 5.71417,2.78846 12.77979,9.73678 27.02398,26.57536 5.48681,6.48617 18.08353,21.28615 27.99272,32.88886 20.68433,24.21939 68.48543,81.54286 82.43827,98.86065 5.20023,6.45436 10.00975,11.73519 10.68782,11.73519 1.67997,0 12.69862,-12.43364 13.50753,-15.24212 0.35768,-1.24183 0.69518,-31.7637 0.75,-67.82638 0.11108,-73.07055 0.0688,-72.57096 6.76373,-79.9814 1.95315,-2.1619 6.53605,-5.39759 10.18424,-7.19042 l 6.63306,-3.25968 30.00944,0.009 30.00944,0.009 4.74431,2.78035 c 2.60938,1.5292 5.42183,4.09051 6.24989,5.69181 2.18166,4.21886 1.93335,12.79689 -0.48525,16.7637 -1.95385,3.20456 -1.98364,5.44244 -2.0026,150.45634 -0.0106,80.96187 -0.39304,147.57719 -0.8499,148.03405 -0.45686,0.45686 -16.77725,0.70151 -36.26753,0.54367 l -35.43688,-0.28792 -6.69284,-3.29627 c -7.52157,-3.70443 -4.37248,-0.2641 -66.09135,-72.20373 -60.28924,-70.27326 -84.97907,-98 -87.26607,-98 -1.18987,0 -1.40201,11.03842 -1.40201,72.95078 0,48.72453 -0.36077,74.63298 -1.08635,78.01627 -2.05968,9.60392 -11.38787,19.48403 -20.75107,21.97882 -4.19608,1.11803 -54.4956,1.88568 -59.26142,0.90441 z m 50.71155,-22.37885 c 1.71199,-0.2808 3.96199,-1.44873 5,-2.5954 1.80638,-1.99549 1.8994,-5.10984 2.16972,-72.64802 0.19809,-49.49288 -0.0397,-70.88525 -0.79625,-71.64183 -0.77157,-0.77157 -3.53398,1.48264 -9.7026,7.91757 -4.74316,4.94794 -13.9397,14.47763 -20.43675,21.17709 l -11.81283,12.18085 -0.0522,50.6153 c -0.0499,48.38369 0.0326,50.73451 1.87099,53.31916 l 1.92322,2.70385 14.36201,-0.25901 c 7.89911,-0.14246 15.76273,-0.48876 17.47472,-0.76956 z M 622,548.66127 c 0,-2.57742 -37.82467,-46.43174 -40.04772,-46.43174 -1.22766,0 -1.4397,3.36171 -1.37094,21.73489 0.0732,19.56229 0.26362,21.93631 1.90498,23.75 1.70532,1.88435 3.04654,2.01511 20.66867,2.01511 12.69944,0 18.84501,-0.34837 18.84501,-1.06826 z m -64.75679,-45.18174 c 0.38539,-30.50258 0.40652,-30.20946 -2.44777,-33.95091 -1.38425,-1.8145 -4.57699,-5.54909 -7.09498,-8.29909 l -4.57815,-5 -11.74231,11.68648 c -10.01935,9.97171 -11.60569,11.97503 -10.81116,13.65299 1.24669,2.63289 34.58905,41.16053 35.6209,41.16053 0.44564,0 0.91971,-8.6625 1.05347,-19.25 z m 67.75788,-11 c 5.9e-4,-12.2375 0.29912,-44.8625 0.66339,-72.5 0.59523,-45.16057 0.50417,-50.25 -0.89905,-50.25 -0.85876,0 -6.43778,5.2875 -12.39784,11.75 -5.96006,6.4625 -15.68098,16.80969 -21.60203,22.99375 L 580,415.71703 v 24.41917 24.41917 l 11.25,12.89846 c 6.1875,7.09416 15.94146,18.38334 21.67546,25.08708 5.734,6.70374 10.7965,12.18862 11.25,12.18862 0.4535,0 0.82503,-10.0125 0.82563,-22.25 z M 515.34164,449.79985 C 521.20374,443.78853 526,438.39856 526,437.82214 c 0,-1.05023 -9.33158,-12.47065 -50.67448,-62.01776 -44.13988,-52.89912 -58.25993,-69.55299 -59.25086,-69.8833 -0.65735,-0.21911 -1.10789,8.84258 -1.29199,25.98601 -0.31666,29.48762 -0.56384,28.24754 7.14046,35.82244 4.76298,4.68298 31.27381,35.19459 56.04256,64.5 14.28667,16.90343 24.90451,28.5 26.09465,28.5 0.34262,0 5.4192,-4.91835 11.2813,-10.92968 z M 358.0895,401.47953 C 374.99085,382.92239 388,367.68191 388,366.43878 c 0,-0.72638 1.0125,-2.69185 2.25,-4.36771 l 2.25,-3.04702 -0.5,-40.89726 c -0.37432,-30.61747 -0.82165,-41.46021 -1.77964,-43.13691 -2.64221,-4.62443 -5.93801,-5.33153 -23.46862,-5.03513 l -16.25174,0.27478 -0.64411,9 c -0.93762,13.10108 -0.99887,130.5 -0.0681,130.5 0.43329,0 4.16905,-3.7125 8.30169,-8.25 z m 245.12618,-44.49938 21.47292,-22.24937 0.55705,-14.25063 c 0.85699,-21.92413 -0.007,-44.38838 -1.84376,-47.94034 l -1.53444,-2.96729 -18.52205,0.32851 -18.52205,0.3285 -2.41167,2.80576 L 580,275.84106 v 52.02757 c 0,29.15378 0.3831,51.88102 0.87138,51.69423 0.47926,-0.18333 10.5342,-10.34555 22.3443,-22.58271 z"
         id="path7" />
      <path
         style="fill:#696c6d"
         d="m 439.19286,746.64839 c -28.65065,-3.68021 -51.45552,-23.07613 -58.21742,-49.51487 -2.40266,-9.39433 -2.63195,-25.99444 -0.48482,-35.10019 4.45829,-18.9071 17.44866,-35.12232 35.00938,-43.70041 10.61638,-5.18591 18.40571,-6.96199 30.5,-6.95447 12.76458,0.008 21.57766,2.00017 32.5,7.34671 14.75694,7.22359 25.29315,17.91301 32.03851,32.50437 10.17681,22.01419 7.55643,49.69543 -6.5039,68.70602 -14.06568,19.01782 -40.37342,29.85582 -64.84175,26.71284 z m 22.30194,-28.0028 c 15.01618,-5.61827 24.08349,-18.70402 25.23323,-36.41606 0.91029,-14.02324 -4.09377,-27.17726 -13.51168,-35.51778 -8.77876,-7.77448 -21.2771,-11.23802 -32.85487,-9.10473 -8.25659,1.52134 -13.30556,4.05468 -19.3509,9.70939 -19.90367,18.61754 -15.48117,57.05733 7.98942,69.44301 8.45943,4.46413 23.30192,5.32567 32.4948,1.88617 z m -227.0354,22.83394 c -0.2628,-0.6875 -0.36118,-29.6 -0.21861,-64.25 l 0.25921,-63 14.14077,-0.27679 14.14077,-0.27679 18.88217,25.27679 c 10.38519,13.90223 24.04685,32.33922 30.35923,40.97108 6.31238,8.63187 11.92706,15.56645 12.47706,15.41019 0.64494,-0.18323 1,-14.27691 1,-39.69429 0,-21.67561 0.1125,-39.98539 0.25,-40.68841 0.19165,-0.97989 3.45921,-1.21328 14,-1 l 13.75,0.27822 0.25735,64.25 0.25735,64.25 h -14.40243 -14.40243 l -9.34356,-12.75 c -9.41814,-12.85178 -43.77619,-58.95079 -48.46145,-65.02188 -1.38875,-1.79953 -2.94797,-3.01048 -3.46492,-2.69098 C 263.37875,662.61349 263,678.94224 263,702.78855 v 39.94098 h -14.03138 c -10.30361,0 -14.15834,-0.33209 -14.50922,-1.25 z m 302.01059,0.0276 c -0.26863,-0.70269 -0.37177,-29.6276 -0.2292,-64.2776 l 0.25921,-63 34.5,0.0829 c 32.02862,0.0769 34.94758,0.23055 40.74814,2.14456 20.66155,6.8177 32.59354,26.13517 29.29807,47.43254 -2.09163,13.51736 -8.96268,23.95397 -19.79524,30.06749 -2.88803,1.62991 -5.2506,3.48301 -5.25015,4.11801 4.6e-4,0.635 5.62546,10.52541 12.5,21.9787 C 635.37537,731.50698 641,741.29448 641,741.80369 c 0,0.52779 -6.63474,0.92584 -15.43191,0.92584 h -15.4319 l -1.88227,-2.75 c -1.03525,-1.5125 -6.51819,-10.96705 -12.18431,-21.01012 -7.35495,-13.03645 -10.91583,-18.41416 -12.44761,-18.79862 -1.18005,-0.29617 -5.51525,-0.40412 -9.63378,-0.23988 l -7.48822,0.29862 -0.5,21 -0.5,21 -14.2708,0.27758 c -10.86498,0.21134 -14.38736,-0.0273 -14.75921,-1 z m 63.16178,-66.91508 c 12.78662,-3.21971 17.56382,-19.10585 8.69682,-28.92055 -2.03769,-2.25548 -5.06651,-4.33034 -7.17705,-4.91655 -2.00835,-0.55784 -10.71852,-1.01676 -19.35595,-1.01982 l -15.7044,-0.006 -0.2956,17.01283 c -0.16257,9.35705 -0.14559,17.45705 0.0377,18 0.46707,1.38323 28.19795,1.25989 33.79844,-0.15033 z M 659,742.36135 c 0,-0.79725 31.81514,-85.14814 39.46462,-104.63182 4.21074,-10.725 8.31415,-20.5125 9.11869,-21.75 1.41548,-2.17721 1.97568,-2.25 17.3173,-2.25 11.47137,0 16.1373,0.34557 16.87743,1.25 C 743.60187,617.20822 790,738.82297 790,741.37474 c 0,1.07712 -2.95711,1.35479 -14.42815,1.35479 H 761.1437 l -2.07185,-5.5 c -1.13952,-3.025 -3.0317,-8.0875 -4.20486,-11.25 -1.17315,-3.1625 -2.57825,-6.3125 -3.12244,-7 -0.74603,-0.94248 -7.29413,-1.24623 -26.61699,-1.23469 -14.09516,0.008 -26.11819,0.34592 -26.71784,0.75 -0.59965,0.40408 -3.0919,5.90969 -5.53832,12.23469 l -4.44804,11.5 -14.71168,0.27673 C 665.62026,742.65847 659,742.59325 659,742.36135 Z m 83.33654,-50.38182 c 0.75615,-1.24757 -16.07005,-43.75 -17.3201,-43.75 -1.01044,0 -18.01644,41.13588 -18.01644,43.58002 0,1.0996 34.67202,1.26638 35.33654,0.16998 z M 333.90116,571.57981 C 324.05554,569.55264 319.15114,558.23408 324,548.72953 c 1.97344,-3.86826 2,-5.89377 2,-152.51213 V 247.62559 l 31.75,0.30197 c 31.32846,0.29796 31.81638,0.33436 36.75,2.74191 5.71417,2.78846 12.77979,9.73678 27.02398,26.57536 5.48681,6.48617 18.08353,21.28615 27.99272,32.88886 20.68433,24.21939 68.48543,81.54286 82.43827,98.86065 5.20023,6.45436 10.00975,11.73519 10.68782,11.73519 1.67997,0 12.69862,-12.43364 13.50753,-15.24212 0.35768,-1.24183 0.69518,-31.7637 0.75,-67.82638 0.11108,-73.07055 0.0688,-72.57096 6.76373,-79.9814 1.95315,-2.1619 6.53605,-5.39759 10.18424,-7.19042 l 6.63306,-3.25968 30.00944,0.009 30.00944,0.009 4.74431,2.78035 c 5.80267,3.40059 7.75546,6.93635 7.75546,14.04214 0,4.08972 -0.51688,6.02448 -2.0837,7.79966 -1.81741,2.05908 -1.99525,2.10518 -1.39155,0.36078 3.54048,-10.23032 2.64744,-14.91393 -3.72366,-19.52913 -3.54382,-2.56806 -4.98205,-2.9718 -10.58305,-2.9718 -6.12257,0 -6.66638,0.19562 -9.81007,3.52891 -4.83939,5.13124 -5.79797,14.24268 -1.84369,17.52444 0.78965,0.65535 1.42571,1.69894 1.41348,2.31909 -0.0122,0.62016 -0.83005,0.0774 -1.81738,-1.20608 -1.78276,-2.31752 -1.9213,-2.33133 -20.06608,-2 l -18.27091,0.33364 -2.4117,2.80576 L 580,275.84106 v 52.02757 c 0,29.15378 0.3831,51.88102 0.87138,51.69423 0.47926,-0.18333 10.5342,-10.34555 22.3443,-22.58271 l 21.47292,-22.24937 0.556,-14.25063 c 0.3058,-7.83784 0.35914,-21.33812 0.11853,-30.00062 -0.2406,-8.6625 -0.21572,-15.75 0.0553,-15.75 0.27101,0 2.20024,1.16625 4.28716,2.59166 3.14273,2.14655 4.62123,2.5142 8.60856,2.14063 2.72785,-0.25557 6.05743,-1.37023 7.68302,-2.57208 l 2.86886,-2.12104 0.31699,2.23042 c 0.17434,1.22672 0.092,67.93041 -0.18302,148.23041 l -0.5,146 h -36.02294 -36.02294 l -6.69376,-3.29627 c -7.52276,-3.7045 -4.37121,-0.26153 -66.09228,-72.20373 -60.28924,-70.27326 -84.97907,-98 -87.26607,-98 -1.18987,0 -1.40201,11.03842 -1.40201,72.95078 0,48.72453 -0.36077,74.63298 -1.08635,78.01627 -2.05968,9.60392 -11.38787,19.48403 -20.75107,21.97882 -4.19608,1.11803 -54.4956,1.88568 -59.26142,0.90441 z m 12.19272,-2.39883 c 7.07316,-3.65767 9.30114,-14.4926 4.15612,-20.21162 -1.5125,-1.68124 -3.44244,-4.05491 -4.28876,-5.27481 -2.1059,-3.03551 -10.30269,-3.87405 -14.85544,-1.51973 -7.37531,3.81392 -9.29014,17.83191 -3.25957,23.86248 4.44203,4.44203 12.91436,5.90163 18.24765,3.14368 z m 38.51883,-19.98002 c 1.71199,-0.2808 3.96199,-1.44873 5,-2.5954 1.80638,-1.99549 1.8994,-5.10984 2.16972,-72.64802 0.19809,-49.49288 -0.0397,-70.88525 -0.79625,-71.64183 -0.77157,-0.77157 -3.53398,1.48264 -9.7026,7.91757 -4.74316,4.94794 -13.9397,14.47763 -20.43675,21.17709 l -11.81283,12.18085 -0.0522,50.6153 c -0.0499,48.38369 0.0326,50.73451 1.87099,53.31916 l 1.92322,2.70385 14.36201,-0.25901 c 7.89911,-0.14246 15.76273,-0.48876 17.47472,-0.76956 z M 622,548.66127 c 0,-2.57742 -37.82467,-46.43174 -40.04772,-46.43174 -1.22766,0 -1.4397,3.36171 -1.37094,21.73489 0.0732,19.56229 0.26362,21.93631 1.90498,23.75 1.70532,1.88435 3.04654,2.01511 20.66867,2.01511 12.69944,0 18.84501,-0.34837 18.84501,-1.06826 z m -64.75679,-45.18174 c 0.38539,-30.50258 0.40652,-30.20946 -2.44777,-33.95091 -1.38425,-1.8145 -4.57699,-5.54909 -7.09498,-8.29909 l -4.57815,-5 -11.74231,11.68648 c -10.01935,9.97171 -11.60569,11.97503 -10.81116,13.65299 1.24669,2.63289 34.58905,41.16053 35.6209,41.16053 0.44564,0 0.91971,-8.6625 1.05347,-19.25 z m 67.75788,-11 c 5.9e-4,-12.2375 0.29912,-44.8625 0.66339,-72.5 0.59523,-45.16057 0.50417,-50.25 -0.89905,-50.25 -0.85876,0 -6.43778,5.2875 -12.39784,11.75 -5.96006,6.4625 -15.68098,16.80969 -21.60203,22.99375 L 580,415.71703 v 24.41917 24.41917 l 11.25,12.89846 c 6.1875,7.09416 15.94146,18.38334 21.67546,25.08708 5.734,6.70374 10.7965,12.18862 11.25,12.18862 0.4535,0 0.82503,-10.0125 0.82563,-22.25 z M 515.34164,449.79985 C 521.20374,443.78853 526,438.39856 526,437.82214 c 0,-1.05023 -9.33158,-12.47065 -50.67448,-62.01776 -44.38308,-53.19059 -58.26212,-69.55372 -59.28353,-69.89419 -0.70376,-0.23458 -1.04642,7.71346 -1.05564,24.48601 -0.008,13.65833 -0.27945,25.8246 -0.6043,27.03616 l -0.59064,2.20283 -2.85637,-2.11181 c -3.46583,-2.5624 -10.82649,-2.75022 -14.46069,-0.369 -1.34674,0.88242 -3.34798,3.36729 -4.4472,5.52193 -1.09921,2.15464 -2.455,4.19961 -3.01286,4.54439 -1.82357,1.12702 -1.06509,-2.03382 1.23571,-5.14963 l 2.25,-3.04702 -0.5,-40.89726 c -0.37432,-30.61747 -0.82165,-41.46021 -1.77964,-43.13691 -2.64221,-4.62443 -5.93801,-5.33153 -23.46862,-5.03513 l -16.25174,0.27478 -0.64411,9 c -0.97537,13.62848 -0.97994,130.5 -0.005,130.5 0.46793,0 7.55543,-7.52398 15.75,-16.71995 8.19457,-9.19598 16.57547,-18.53348 18.62422,-20.75 l 3.72499,-4.03005 0.025,3.60078 c 0.043,6.18678 1.8918,9.73685 6.46733,12.41829 8.48265,4.97116 18.43225,2.56742 22.51733,-5.44 2.82298,-5.5335 2.63964,-10.21339 -0.54855,-14.00234 -4.21815,-5.01299 -0.88649,-3.50478 4.81588,2.18009 5.45366,5.43693 31.66741,35.57982 56.7387,65.24318 14.28667,16.90343 24.90451,28.5 26.09465,28.5 0.34262,0 5.4192,-4.91835 11.2813,-10.92968 z"
         id="path6" />
      <path
         style="fill:#1e9c78"
         d="m 435.76339,745.76547 c -21.61735,-3.95375 -40.63581,-17.81071 -49.45876,-36.03594 -5.58515,-11.53703 -6.78,-17.22652 -6.72034,-32 0.0442,-10.94824 0.39168,-13.49313 2.79903,-20.5 7.06989,-20.57775 21.38922,-34.90256 42.12628,-42.14238 7.29252,-2.546 9.21316,-2.78768 21.9904,-2.76716 12.46712,0.02 14.87593,0.31461 22,2.69043 11.39325,3.79956 19.86238,9.06558 28.62063,17.79602 12.59909,12.55909 18.82276,27.97316 18.86201,46.71525 0.0194,9.25748 -2.0866,20.95166 -4.99509,27.73689 -7.17761,16.74467 -25.09764,31.95451 -43.48755,36.91056 -7.1148,1.91743 -25.04886,2.8195 -31.73661,1.59633 z m 28.64687,-27.84715 c 23.95803,-11.21132 30.79724,-44.15207 13.79563,-66.44605 -12.96716,-17.00366 -40.47151,-19.86257 -56.41501,-5.864 -14.10593,12.38518 -18.06615,37.35952 -8.78674,55.41187 2.51495,4.89262 9.04414,11.9282 13.83223,14.90501 10.67452,6.63647 25.92286,7.44535 37.57389,1.99317 z M 235,678.75775 v -64.02822 h 14.02951 14.02951 l 24.7725,33.25 c 13.62487,18.2875 27.33981,36.7375 30.47764,41 3.13782,4.2625 6.15192,7.75 6.69799,7.75 0.641,0 0.99285,-14.53969 0.99285,-41.02822 v -41.02822 l 13.75,0.27822 13.75,0.27822 v 63.5 63.5 l -13.68519,0.2778 -13.68519,0.2778 -2.5361,-3.2778 c -3.1324,-4.04849 -39.48623,-52.79302 -50.55354,-67.78402 -4.46397,-6.04658 -8.54409,-10.99378 -9.06693,-10.99378 -0.581,0 -1.05218,15.84443 -1.21183,40.75 l -0.26122,40.75 -13.75,0.27822 -13.75,0.27822 z m 302,-0.0282 v -64 l 31.75,0.006 c 17.4625,0.003 34.36935,0.43478 37.57077,0.95909 13.28566,2.17587 24.24353,10.32787 30.26802,22.51761 5.95032,12.03964 5.9046,27.4939 -0.11691,39.51955 -2.67957,5.35141 -11.45093,13.9263 -17.29525,16.90785 -2.29715,1.17192 -4.17663,2.54339 -4.17663,3.04772 0,0.50433 5.81125,10.58393 12.91388,22.39913 7.10263,11.81519 12.65263,21.74341 12.33333,22.06271 -0.3193,0.3193 -7.2268,0.58055 -15.35001,0.58055 H 610.12773 L 598.59702,722.3797 c -6.34189,-11.19252 -12.17531,-20.88501 -12.96315,-21.53886 -0.94229,-0.78203 -4.63208,-1.08998 -10.78315,-0.89996 l -9.35072,0.28865 -0.26989,21.25 -0.26989,21.25 H 550.98011 537 Z m 66.26413,-4.88492 C 609.54698,670.80195 613,665.13254 613,657.85955 c 0,-9.18066 -4.23817,-15.09209 -12.89922,-17.99192 -4.70352,-1.57479 -32.3145,-1.52438 -33.90078,0.0619 -0.83781,0.83781 -1.2,6.25562 -1.2,17.95031 0,14.87288 0.19615,16.87186 1.75,17.83477 1.11971,0.69388 7.15248,0.9679 16.75,0.76082 13.22715,-0.28539 15.56307,-0.59633 19.76413,-2.63082 z M 660,741.69677 c 0,-1.58281 26.89563,-73.28715 38.15318,-101.71724 l 9.99833,-25.25 h 16.78127 16.78128 l 8.06447,20.75 c 4.43546,11.4125 13.24032,34.475 19.56636,51.25 6.32604,16.775 13.56036,35.9 16.07626,42.5 2.5159,6.6 4.57537,12.34986 4.57661,12.77746 10e-4,0.4276 -6.40088,0.6526 -14.22692,0.5 l -14.22917,-0.27746 -4.66511,-12 -4.6651,-12 -26.97015,-0.26583 c -20.81845,-0.20519 -27.1994,0.0229 -27.97522,1 -0.55278,0.69621 -2.67691,5.76565 -4.72029,11.26544 -2.04337,5.49978 -4.1822,10.56228 -4.75296,11.25 C 686.46929,743.07392 660,743.28119 660,741.69677 Z m 81.94953,-48.91489 c 1.21422,-0.76815 0.68837,-2.92047 -3.2392,-13.25818 -9.95885,-26.21257 -12.45257,-32.20825 -13.54788,-32.57335 -1.32452,-0.44151 -0.86564,-1.4637 -11.01864,24.5446 -6.98106,17.88293 -7.71906,20.37759 -6.27747,21.21959 2.09425,1.22319 32.16224,1.2826 34.08319,0.0673 z M 334.1228,571.68787 c -10.23626,-2.2968 -15.01877,-13.36146 -10.01482,-23.17 1.15939,-2.27258 2.19982,-6.19216 2.31207,-8.71016 0.11225,-2.518 0.28866,-69.26568 0.39202,-148.32818 L 327,247.72953 h 27.7899 c 41.65158,0 40.56331,-0.47506 65.28831,28.5 46.14576,54.07792 81.65809,96.43122 111.15926,132.5726 4.74656,5.81494 9.30596,11.13352 10.13201,11.81907 1.26142,1.04689 2.51292,0.17945 7.81621,-5.41763 3.47287,-3.66525 6.76431,-7.40883 7.31431,-8.31907 0.62801,-1.03933 1.186,-27.5086 1.5,-71.15497 0.55697,-77.41827 0.015,-71.82063 7.66758,-79.19116 2.10783,-2.03014 6.30742,-4.83825 9.33242,-6.24023 l 5.5,-2.54907 30.41214,-0.01 30.41214,-0.01 4.33229,2.53889 c 5.39721,3.16298 7.34343,6.82055 7.34343,13.80067 0,4.08972 -0.51688,6.02448 -2.0837,7.79966 -1.81741,2.05908 -1.99525,2.10518 -1.39155,0.36078 3.54048,-10.23032 2.64744,-14.91393 -3.72366,-19.52913 -3.54382,-2.56667 -4.98205,-2.97041 -10.58305,-2.97041 -6.12257,0 -6.66638,0.19562 -9.81007,3.52891 -4.83939,5.13124 -5.79797,14.24268 -1.84369,17.52444 0.78965,0.65535 1.43348,1.69894 1.43075,2.31909 -0.003,0.62016 -1.03841,-0.16391 -2.3015,-1.74238 l -2.29654,-2.86995 -17.15658,0.3934 c -15.42584,0.35371 -17.43582,0.60189 -19.92469,2.46009 -1.52246,1.13668 -3.07147,3.15113 -3.44224,4.47655 -0.98973,3.5381 -0.99117,102.1759 -0.002,103.73693 0.80565,1.27078 17.17558,-14.71565 38.98328,-38.07001 l 7.23015,-7.74294 -0.2927,-29.50778 c -0.16099,-16.22929 -0.20018,-29.50746 -0.0871,-29.50707 0.11308,4e-4 1.91308,1.16697 4,2.59238 3.14273,2.14655 4.62123,2.5142 8.60856,2.14063 2.64779,-0.24807 6.05158,-1.3659 7.56399,-2.48408 l 2.74984,-2.03304 -0.37884,147.14242 c -0.20837,80.92832 -0.57074,147.7315 -0.80529,148.45151 -0.34316,1.05346 -7.21926,1.24874 -35.21228,1 l -34.78536,-0.3091 -6.97286,-3.5 c -7.98307,-4.00707 -7.49649,-3.48033 -62.35416,-67.5 -65.67994,-76.64942 -90.18664,-103.97702 -92.5408,-103.19292 -0.75228,0.25057 -1.22896,23.59548 -1.57791,77.27597 -0.49812,76.62772 -0.50819,76.93225 -2.67758,80.98516 -2.76036,5.15696 -9.24273,11.03991 -15.20002,13.79446 -4.27627,1.97728 -6.45699,2.15305 -29.1224,2.34729 -13.475,0.11547 -25.625,0.3891 -27,0.60805 -1.375,0.21896 -4.01974,0.0571 -5.8772,-0.35967 z m 11.97108,-2.50689 c 7.07316,-3.65767 9.30114,-14.4926 4.15612,-20.21162 -1.5125,-1.68124 -3.44244,-4.05491 -4.28876,-5.27481 -2.1059,-3.03551 -10.30269,-3.87405 -14.85544,-1.51973 -7.37531,3.81392 -9.29014,17.83191 -3.25957,23.86248 4.44203,4.44203 12.91436,5.90163 18.24765,3.14368 z m 39.89439,-19.75789 c 6.75506,-2.31134 6.51173,0.562 6.51173,-76.89347 0,-52.06866 -0.29734,-69.99727 -1.17544,-70.87544 -1.43844,-1.43855 -3.7958,0.79515 -26.81513,25.40848 l -16.67822,17.83313 0.21593,49.16687 0.21594,49.16687 2.38265,3.75 2.38265,3.75 14.73581,-0.0564 c 8.64728,-0.0331 16.17709,-0.5496 18.22408,-1.25 z M 622,549.74268 c 1.8466,-1.17717 2.51709,-0.21091 -12.59644,-18.15289 -20.33498,-24.14063 -25.93126,-30.3382 -27.70279,-30.67937 -1.56079,-0.30058 -1.69499,1.46865 -1.63048,21.49579 0.0386,12.00282 0.39915,22.65959 0.80109,23.68169 1.53366,3.8999 4.83571,4.56982 22.62862,4.59088 9.35,0.0111 17.675,-0.41017 18.5,-0.9361 z m -64,-51.81887 c 0,-24.16734 -0.0579,-24.88306 -2.25,-27.81097 -5.1627,-6.89563 -11.3506,-13.38236 -12.76631,-13.38282 -2.03631,-6.6e-4 -24.33445,22.44724 -23.82265,23.98264 0.94843,2.84529 35.48076,41.91774 37.08896,41.96521 1.62102,0.0478 1.75,-1.77655 1.75,-24.75406 z m 68,-56.2533 c 0,-60.36908 -0.23141,-72.94098 -1.3426,-72.94098 -0.73842,0 -5.35092,4.36869 -10.25,9.7082 -4.89907,5.33951 -14.46928,15.57701 -21.26713,22.75 -6.79784,7.17299 -12.79412,14.1668 -13.32506,15.5418 -0.59569,1.54271 -0.6942,11.3217 -0.25727,25.53817 l 0.70807,23.03818 18.44548,21.46182 c 23.1323,26.91508 25.19346,29.13861 26.34889,28.42451 C 625.63264,514.83853 626,486.09423 626,441.67051 Z m -110.39688,8.62537 c 5.35871,-5.7385 10.12362,-11.11357 10.58868,-11.94459 0.6175,-1.10341 -0.99327,-3.61625 -5.9719,-9.31635 -3.74961,-4.29298 -9.70957,-11.40541 -13.24435,-15.80541 -6.33434,-7.88482 -38.04814,-45.94492 -72.49326,-87 -9.69042,-11.55 -18.1507,-21 -18.80062,-21 -0.8735,0 -1.25107,7.11134 -1.44777,27.26803 l -0.26611,27.26803 -2.94456,-2.17701 c -3.55386,-2.62748 -10.86835,-2.84577 -14.54888,-0.4342 -1.34674,0.88242 -3.34798,3.36729 -4.4472,5.52193 -1.09921,2.15464 -2.455,4.19961 -3.01286,4.54439 -1.82324,1.12683 -1.06527,-2.03351 1.23571,-5.15224 2.24704,-3.04562 2.2499,-3.10145 2.17081,-42.44428 -0.0908,-45.16911 -0.20366,-45.98427 -6.78074,-48.9708 -3.44075,-1.56238 -6.61949,-1.88364 -18.81864,-1.90189 -11.31515,-0.0169 -15.0014,0.30087 -16.08746,1.38693 -1.09776,1.09775 -1.55473,6.89475 -2.06927,26.25 -1.03412,38.90055 -0.79054,111.6096 0.37971,113.34111 0.85241,1.26124 1.44687,1.00518 3.73468,-1.60868 1.4965,-1.70978 8.12091,-9.14057 14.72091,-16.51287 6.6,-7.3723 13.9125,-15.59924 16.25,-18.2821 l 4.25,-4.87793 v 3.49157 c 0,6.04391 1.87957,9.63513 6.44233,12.30908 8.48265,4.97116 18.43225,2.56742 22.51733,-5.44 2.82298,-5.5335 2.63964,-10.21339 -0.54855,-14.00234 -4.34805,-5.16737 -0.73813,-3.42073 4.49168,2.17327 5.64493,6.03803 24.5342,27.82794 50.92929,58.75 26.96963,31.59515 30.09834,35 32.16136,35 1.08029,0 5.97081,-4.39512 11.60968,-10.43365 z"
         id="path5" />
      <path
         style="fill:#334d48"
         d="m 439.38806,745.66976 c -23.35253,-3.01381 -43.01444,-16.45557 -53.05587,-36.27139 -6.02663,-11.89299 -8.18734,-33.17465 -4.81883,-47.4625 3.09132,-13.11211 11.75513,-26.8908 22.04142,-35.05409 12.17508,-9.66224 26.37221,-14.51333 42.44522,-14.50333 12.83593,0.008 21.4977,1.98372 33,7.52721 11.97221,5.76996 23.93481,17.71828 29.85953,29.82387 8.29717,16.95306 9.09992,37.86769 2.14129,55.78851 -10.41972,26.83431 -41.17759,44.07958 -71.61276,40.15172 z m 24.83001,-27.12707 c 18.24299,-8.52883 27.7202,-30.27292 22.28669,-51.13356 -2.06729,-7.93689 -4.58498,-12.51204 -10.36636,-18.83779 -14.89871,-16.30156 -41.07781,-16.86031 -56.51087,-1.20612 -17.02323,17.26713 -16.12167,49.4311 1.82729,65.19049 7.81776,6.86409 15.06109,9.20309 27.54518,8.89482 7.89432,-0.19493 10.46646,-0.68641 15.21807,-2.90784 z m 73.19526,23.27017 C 537.186,741.5837 537,712.8962 537,678.06286 v -63.33333 l 28.25,0.008 c 42.94234,0.0115 50.77397,1.49103 61.76688,11.66852 13.6277,12.61685 17.43803,32.69479 9.50017,50.05968 -2.85918,6.25475 -10.21311,13.82836 -16.76705,17.26793 -2.80657,1.47292 -4.75,3.18358 -4.75,4.1811 0,0.92854 5.625,10.99712 12.5,22.37462 6.875,11.3775 12.5,20.85606 12.5,21.06346 0,0.20741 -6.72668,0.3771 -14.94818,0.3771 h -14.94819 l -11.61486,-20.49856 c -6.38818,-11.27421 -12.45691,-20.94921 -13.48608,-21.5 -2.02955,-1.08619 -15.84722,-1.38207 -18.4209,-0.39445 C 565.20943,699.86314 565,702.70255 565,720.7824 v 20.8389 l -13.58667,0.30411 c -7.47267,0.16727 -13.77267,0.11662 -14,-0.11255 z m 63.31105,-66.59412 c 15.07037,-4.47542 17.8466,-25.37448 4.47521,-33.6888 -3.42279,-2.12829 -4.99888,-2.32543 -21.06522,-2.63478 -10.37509,-0.19977 -17.75655,0.0566 -18.33675,0.63675 -0.99006,0.99006 -1.17543,34.77729 -0.19947,36.35644 0.94532,1.52955 29.5575,0.98412 35.12623,-0.66961 z M 235,678.22953 v -63.5 h 13.79221 13.79221 l 18.05451,24.25 c 9.92998,13.3375 23.80873,32.0176 30.84167,41.51134 10.86471,14.66623 13.01244,17.07436 14.28563,16.01771 1.29755,-1.07687 1.44721,-6.60962 1.11613,-41.26134 L 326.5,615.22953 339.75,614.9505 353,614.67148 v 63.52902 63.52903 h -13.88499 -13.88499 l -1.76919,-2.75 c -0.97306,-1.5125 -12.17635,-16.7 -24.89622,-33.75 -12.71986,-17.05 -25.33727,-34.0375 -28.03869,-37.75 -2.93334,-4.03124 -5.63953,-6.75 -6.71879,-6.75 -1.71309,0 -1.80713,2.10747 -1.80713,40.5 v 40.5 H 248.5 235 Z m 425.97618,61.06265 c 0.50968,-1.34055 7.91255,-21.02805 16.45083,-43.75 8.53828,-22.72196 19.02264,-50.08765 23.29857,-60.81265 l 7.77442,-19.5 h 16.45897 16.45898 l 6.82419,17.5 c 8.42556,21.60653 39.869,104.84162 40.52645,107.27903 0.44567,1.65229 -0.50559,1.75915 -13.35276,1.5 l -13.83262,-0.27903 -4.3295,-11.4644 c -2.38122,-6.30542 -4.87495,-11.81103 -5.5416,-12.23469 -0.66666,-0.42366 -12.96951,-0.77718 -27.33967,-0.7856 -19.8166,-0.0116 -26.38029,0.28922 -27.1739,1.24547 -0.5755,0.69342 -2.93446,6.31842 -5.24214,12.5 l -4.19578,11.23922 H 673.90506 660.0495 Z m 82.45805,-46.45623 c 0.9526,-1.54133 -16.81668,-46.60642 -18.37703,-46.60642 -0.77452,0 -2.21172,2.025 -3.19378,4.5 -12.75882,32.15497 -15.86737,40.54733 -15.43559,41.67253 0.39723,1.03516 4.46699,1.32747 18.48177,1.32747 9.8848,0 18.22088,-0.40211 18.52463,-0.89358 z M 348.75571,569.21769 C 352.21905,566.74642 354,562.37537 354,556.34649 v -5.48236 l 16.47995,-0.3173 16.47994,-0.3173 2.77006,-2.77222 2.77005,-2.77223 0.28181,-71.49695 c 0.25951,-65.83827 0.15049,-71.54735 -1.37745,-72.13368 -1.21155,-0.46491 -4.64708,2.44092 -12.73226,10.76918 -6.09014,6.27325 -15.48279,15.92358 -20.87254,21.4452 L 348,443.30812 v 49.63406 49.63406 l -3.22908,-1.61088 c -4.10175,-2.04622 -12.02104,-1.95719 -15.27007,0.17166 L 327,542.77564 V 395.91925 c 0,-80.77101 0.18649,-147.04389 0.41442,-147.27305 0.22792,-0.22917 14.29042,-0.19167 31.25,0.0833 l 30.83558,0.5 5.35577,2.82044 c 6.15728,3.24254 10.10546,7.11551 24.37362,23.90938 5.64883,6.64878 18.37648,21.57952 28.28365,33.17943 19.61788,22.9698 65.69028,78.20289 82.86457,99.34075 5.92102,7.2875 11.30879,13.25 11.97283,13.25 2.24024,0 13.63416,-12.4595 14.65775,-16.02857 0.61016,-2.12745 0.99181,-28.49952 0.99181,-68.5333 0,-71.6976 0.0216,-71.97635 6.12848,-78.93165 1.67345,-1.90595 6.03004,-4.93711 9.68133,-6.73591 l 6.6387,-3.27054 25.02574,-0.25778 c 22.46349,-0.23139 24.82701,-0.10341 23.08462,1.25 -1.06762,0.82928 -2.28615,1.50778 -2.70785,1.50778 -1.95756,0 -5.85102,8.87545 -5.85102,13.33786 v 4.66214 l -15.75,0.0564 c -17.29766,0.062 -21.98415,1.02896 -23.95919,4.94356 -0.96652,1.91569 -1.26477,14.71206 -1.27607,54.75 -0.0164,58.32104 -0.33513,56.04351 6.71625,48 2.04917,-2.3375 11.948,-12.6346 21.99739,-22.88244 L 626,334.96465 l 0.20804,-10.86756 c 0.11442,-5.97716 0.0531,-18.85506 -0.13632,-28.61756 -0.19253,-9.92394 0.0464,-17.73438 0.54196,-17.71456 0.48748,0.0195 2.01132,0.67854 3.38632,1.46456 3.34491,1.91212 10.38414,1.86983 14.16456,-0.0851 1.68588,-0.8718 3.35104,-1.2093 3.70034,-0.75 0.34931,0.45931 0.51238,66.43878 0.36238,146.62106 l -0.27272,145.78597 -35.72728,-0.28597 -35.72728,-0.28596 -5.61232,-2.63164 c -7.69564,-3.60853 -7.27731,-3.15129 -70.78377,-77.36836 -58.56751,-68.44515 -83.26432,-95.73959 -85.0302,-93.97371 -0.66124,0.66124 -1.11037,27.39741 -1.29336,76.99336 -0.26066,70.6433 -0.4067,76.26132 -2.07918,79.98035 -2.25393,5.012 -7.84423,10.85974 -13.70117,14.33211 -4.48575,2.65944 -4.57444,2.66884 -28,2.96676 -21.82179,0.27752 -23.33891,0.18392 -21.24429,-1.31071 z M 623.4792,549.76318 c 1.01869,-1.64826 -39.65839,-50.03365 -42.06275,-50.03365 -2.35183,0 -2.7354,4.62895 -2.13584,25.77521 0.77355,27.28278 -1.21182,25.22479 24.33469,25.22479 11.31849,0 19.51305,-0.39865 19.8639,-0.96635 z m -65.23599,-45.78365 c 0.40288,-32.71476 0.65857,-30.39766 -4.02294,-36.45561 -2.2503,-2.91191 -5.69331,-6.84311 -7.65115,-8.73599 l -3.5597,-3.44161 -3.18953,2.94161 c -10.79264,9.9537 -20.14101,19.17745 -20.93148,20.65245 -0.73243,1.36668 1.6333,4.68593 11.76002,16.5 20.06223,23.40506 24.55061,28.28915 25.99716,28.28915 1.08528,0 1.40274,-3.9244 1.59762,-19.75 z m 68.20168,-61.19952 c 0.40455,-40.12224 0.42798,-73.44716 0.0521,-74.05537 -0.3759,-0.60822 -1.25035,-0.96843 -1.94322,-0.80048 -0.69287,0.16795 -7.25164,6.83037 -14.57504,14.80537 -7.3234,7.975 -17.28955,18.6423 -22.147,23.70512 L 579,415.63977 v 24.4161 24.41611 l 16.16511,18.87877 c 24.20055,28.26314 27.9239,32.37878 29.29255,32.37878 0.9841,0 1.40895,-15.59564 1.98723,-72.94952 z m -110.63957,7.60307 c 6.15707,-6.24055 11.17778,-11.97805 11.15713,-12.75 -0.0207,-0.77195 -1.61684,-3.20355 -3.54708,-5.40355 -1.93025,-2.2 -8.2998,-9.85 -14.15456,-17 -16.12739,-19.69524 -32.07216,-38.81753 -61.28662,-73.5 -14.59356,-17.325 -27.42034,-32.72336 -28.50396,-34.21858 -1.08363,-1.49521 -2.75773,-2.73271 -3.72023,-2.75 -1.62274,-0.0291 -1.75,1.86534 -1.75,26.05191 0,20.47646 -0.2687,25.97191 -1.25,25.56498 -7.47193,-3.0985 -11.06293,-3.14052 -17.91966,-0.20967 -1.54046,0.65846 -1.69522,-2.37147 -2,-39.15808 -0.2985,-36.02921 -0.4999,-40.13038 -2.08976,-42.55535 -3.40204,-5.18904 -6.12244,-5.79998 -24.4877,-5.4994 l -16.75288,0.27419 -0.74697,12.5 c -1.18913,19.89926 -0.46967,129.5 0.85008,129.5 0.97854,0 21.76262,-22.68237 31.93447,-34.85117 l 3.82395,-4.57467 2.06924,5.16968 c 2.8664,7.16129 8.58238,11.18473 15.8898,11.18473 9.72163,0 15.58555,-5.74255 16.64203,-16.29756 l 0.5374,-5.36899 6.99534,8.36899 c 3.84744,4.60294 13.3005,15.56899 21.0068,24.36899 7.70631,8.8 21.4334,24.75989 30.50466,35.46642 18.44729,21.77276 23.24302,27.03358 24.64368,27.03358 0.52809,0 5.99776,-5.1059 12.15484,-11.34645 z"
         id="path3" />
      <path
         style="fill:#2b3235"
         d="m 429,743.34964 c -14.59255,-4.42199 -23.30811,-9.72587 -32.28796,-19.64893 -14.16331,-15.65096 -20.14671,-39.722 -15.15578,-60.97118 5.46265,-23.25755 23.40344,-41.73427 46.48881,-47.87751 15.17929,-4.03936 26.45184,-3.62536 42.09917,1.54614 30.30373,10.01549 49.4862,41.07621 44.86905,72.65308 -4.10266,28.05825 -21.91606,47.60457 -49.92325,54.77989 -10.66184,2.73152 -26.16989,2.52462 -36.09004,-0.48149 z m 31.81333,-23.16437 c 10.4443,-3.14327 21.00157,-13.66339 24.88763,-24.80004 1.33074,-3.81365 1.79904,-8.16307 1.79904,-16.70903 0,-11.30533 -0.0793,-11.71383 -3.69625,-19.03072 -6.52527,-13.20039 -16.28551,-20.80456 -29.64359,-23.09522 -18.15644,-3.11348 -34.66486,5.3485 -42.31106,21.68804 -8.15483,17.42647 -5.36403,38.54285 6.8147,51.5629 10.53809,11.26607 26.30889,15.1514 42.14953,10.38407 z m -225.57079,-41.70574 0.25746,-63.25 h 13.48291 13.48291 l 13.532,18 c 16.91534,22.50046 45.14819,60.75756 46.56602,63.09957 0.66866,1.10452 1.69018,1.51693 2.75,1.11024 C 326.85748,696.84699 327,693.32414 327,655.76091 v -41.03138 h 13 13 v 63.52822 63.52822 l -13.72818,-0.27822 -13.72819,-0.27822 -11.52181,-15.64371 c -6.337,-8.60403 -17.03263,-23.00403 -23.76806,-32 -6.73543,-8.99596 -15.06518,-20.17604 -18.51055,-24.84463 C 261.44868,654.7918 262,652.9859 262,700.65621 v 41.07332 h -13.50746 -13.50745 z m 302,0 0.25746,-63.25 25,-0.29174 c 32.39756,-0.37806 45.70106,0.7614 53.94829,4.62075 15.29486,7.15733 23.74681,20.6325 23.75013,37.86549 0.003,16.77087 -6.66109,28.16684 -21.506,36.77518 -2.83701,1.64515 -4.60632,3.31232 -4.31657,4.0674 0.46393,1.20897 21.30285,36.40123 24.40402,41.21292 l 1.45015,2.25 h -14.9469 -14.9469 l -11.78833,-20.75 c -6.48358,-11.4125 -12.29672,-21.08061 -12.91811,-21.48469 -1.92763,-1.25352 -19.1071,-0.88799 -20.42978,0.43469 -0.85452,0.85452 -1.2,7.04444 -1.2,21.5 v 20.3 h -13.50746 -13.50745 z m 63.25416,-2.8707 c 6.08524,-1.68935 12.13884,-8.26609 13.02055,-14.14575 1.41724,-9.45086 -1.92273,-16.66209 -9.48721,-20.48355 -4.10387,-2.07321 -5.8038,-2.25 -21.63494,-2.25 -14.74445,0 -17.26721,0.22433 -17.78811,1.58179 C 564.27314,641.1813 564,649.0195 564,657.72953 c 0,8.71003 0.27314,16.54823 0.60699,17.41821 0.51783,1.34945 2.90473,1.58097 16.25,1.57621 8.60365,-0.003 17.44153,-0.50487 19.63971,-1.11512 z m 74.5179,26.8707 c 14.58282,-38.77558 26.45297,-69.58231 31.30647,-81.25 l 2.49586,-6 h 16.15683 16.15683 l 6.47358,16.5 c 3.56047,9.075 10.0299,25.95 14.37652,37.5 4.34661,11.55 12.20412,32.35558 17.46112,46.23462 5.25701,13.87903 9.55819,25.47923 9.55819,25.77822 0,0.29898 -6.11384,0.4184 -13.58631,0.26538 l -13.5863,-0.27822 -4.38514,-11.42145 c -2.41183,-6.28179 -4.76537,-11.80167 -5.2301,-12.2664 -0.46473,-0.46473 -13.12562,-0.72508 -28.1353,-0.57856 l -27.29034,0.26641 -4.63833,12.25 -4.63834,12.25 H 673.8816 660.25336 Z m 68.48717,-9.75286 c 0.34089,-0.55158 -3.33816,-11.35158 -8.17567,-24 -6.21681,-16.25481 -9.24769,-22.99714 -10.3379,-22.99714 -1.0795,0 -4.04906,6.37778 -9.8942,21.25 -4.59348,11.6875 -8.56985,22.4875 -8.83639,24 l -0.48461,2.75 h 18.55448 c 11.32628,0 18.79594,-0.39068 19.17429,-1.00286 z M 351.3247,567.75549 c 2.93438,-3.48731 4.73171,-9.01703 4.39737,-13.52908 L 355.5,551.22953 370.48015,550.8862 c 17.35296,-0.39772 19.87667,-1.20818 21.52494,-6.91249 1.59205,-5.50978 0.93638,-143.43054 -0.68443,-143.97071 -1.45929,-0.48633 -8.68201,6.5274 -28.2001,27.38413 L 348,443.54472 v 48.69939 c 0,45.99033 -0.0974,48.659 -1.75,47.97327 -6.63802,-2.75431 -10.74281,-2.75181 -17.5,0.0107 -1.66195,0.67944 -1.75,-6.63616 -1.75,-145.39155 v -146.107 h 29.48927 c 39.23461,0 38.18415,-0.39225 57.23765,21.37278 5.92519,6.76842 17.74808,20.56385 26.27308,30.65651 8.525,10.09267 18.44652,21.7524 22.04782,25.91051 3.6013,4.15811 7.6513,8.96474 9,10.68141 1.3487,1.71666 10.34146,12.51666 19.98391,24 9.64245,11.48333 18.64245,22.28128 20,23.99544 6.23067,7.86738 28.02381,34.29603 29.48786,35.76008 2.02245,2.02245 2.45163,1.74737 10.48649,-6.72114 l 6.49392,-6.84441 0.50479,-69.65559 c 0.56873,-78.47789 0.0187,-73.23543 8.50482,-81.05768 8.7374,-8.05385 10.80376,-8.54918 37.24039,-8.92687 12.7875,-0.18269 23.25,-0.0232 23.25,0.35448 0,0.37765 -1.17953,1.61446 -2.62118,2.74846 C 620.96651,253.68764 619,258.53375 619,264.25868 v 4.5934 l -4.25,-0.59658 c -2.3375,-0.32811 -10.30249,-0.18387 -17.69997,0.32055 -12.81074,0.87353 -13.55928,1.0442 -15.75,3.59106 L 579,274.84106 v 52.88522 c 0,32.30587 0.36951,53.11359 0.94957,53.47209 0.82965,0.51274 17.40771,-15.9521 39.58107,-39.31075 L 626.5,334.54571 v -27.90858 c 0,-15.34971 0.0611,-27.90835 0.13569,-27.90809 0.0746,2.7e-4 1.42463,0.67272 3,1.49433 3.72783,1.94419 11.66147,1.92097 15.46375,-0.0453 l 3.00011,-1.55142 -0.29977,145.80142 L 647.5,570.22953 H 612 576.5 l -5.70082,-2.79935 c -7.19653,-3.53382 -11.28132,-8.00977 -68.62875,-75.20065 -52.8358,-61.90484 -83.93419,-96.5 -86.7461,-96.5 -1.13811,0 -1.41567,12.65323 -1.67261,76.25 -0.23086,57.14301 -0.61719,77.15778 -1.54173,79.87267 -1.74836,5.134 -8.08766,11.93985 -14.35458,15.41103 l -5.35541,2.9663 -21.899,0.32143 -21.89899,0.32143 z M 624,548.77922 c 0,-1.07267 -0.57197,-2.31017 -1.27105,-2.75 -0.69908,-0.43983 -5.52695,-5.97469 -10.72859,-12.29969 -18.14787,-22.06711 -29.1517,-34.11748 -30.85557,-33.79014 -1.44477,0.27755 -1.68118,2.62499 -1.94401,19.30306 -0.34174,21.6847 0.15977,26.84763 2.8713,29.55916 1.77536,1.77536 3.51051,1.92792 21.92792,1.92792 19.16348,0 20,-0.0816 20,-1.95031 z m -65.58749,-50.06279 c 0.53174,-23.53507 0.47135,-24.64874 -1.51356,-27.91267 -3.28522,-5.4021 -12.1956,-15.07423 -13.88704,-15.07423 -2.27166,0 -25.41367,23.53419 -24.73854,25.15777 0.67175,1.61547 35.50375,42.04007 37.09469,43.05059 0.61337,0.3896 1.42468,0.3896 1.80292,0 0.37823,-0.3896 0.93692,-11.73926 1.24153,-25.22146 z m 67.92404,-33.15136 c 0.3649,-28.14046 0.66345,-61.66546 0.66345,-74.5 0,-22.01875 -0.10415,-23.33554 -1.84574,-23.33554 -1.64143,0 -19.89728,18.77103 -39.90426,41.03036 l -6.25,6.95362 v 24.5944 24.5944 l 22.2466,25.91361 c 12.23563,14.25249 22.73708,25.91361 23.33655,25.91361 0.76376,0 1.28851,-15.31238 1.7534,-51.16446 z M 516.40391,450.47953 c 5.8151,-6.1875 10.57812,-12.08691 10.5845,-13.10979 0.006,-1.02289 -2.12591,-4.19931 -4.73841,-7.05871 -2.6125,-2.85941 -9.45996,-11.0225 -15.21657,-18.14021 -11.11264,-13.74012 -35.44959,-43.06399 -47.98831,-57.82165 -16.4174,-19.32275 -32.48669,-38.42738 -37.32019,-44.36964 -2.7961,-3.4375 -5.67807,-6.25 -6.40437,-6.25 -1.06022,0 -1.32056,5.12578 -1.32056,26 0,14.3 -0.3375,25.98405 -0.75,25.96456 -0.4125,-0.0195 -1.875,-0.67854 -3.25,-1.46456 -3.27588,-1.87266 -9.76757,-1.86967 -13.36431,0.006 -1.57537,0.82161 -3.00985,1.49384 -3.18773,1.49384 -0.17789,0 -0.47447,-17.8875 -0.65908,-39.75 -0.18461,-21.8625 -0.70728,-40.52839 -1.16149,-41.47976 -0.45421,-0.95137 -2.31429,-2.64968 -4.1335,-3.77402 -3.05046,-1.88529 -4.65626,-2.02294 -20.65078,-1.77023 l -17.34311,0.27417 -0.66239,5 c -0.36432,2.75 -0.70182,34.8125 -0.75,71.25 -0.0703,53.19108 0.16458,66.25 1.1918,66.25 1.07115,0 23.05288,-23.72082 32.20229,-34.75 1.48285,-1.7875 3.056,-3.25 3.4959,-3.25 0.4399,0 1.08501,1.5202 1.43358,3.37822 0.80432,4.28743 4.39991,8.17996 9.83465,10.64684 5.1803,2.35139 8.65472,2.46116 13.52264,0.42721 7.10187,-2.96735 11.31896,-8.70406 11.41311,-15.52578 0.0298,-2.15957 0.33864,-3.89149 0.6863,-3.84872 0.34767,0.0428 4.45712,4.70327 9.13212,10.35665 4.675,5.65339 15.925,18.81005 25,29.23703 9.075,10.42698 21,24.32374 26.5,30.8817 14.06195,16.76684 19.51769,22.44685 21.56056,22.44685 0.97375,0 6.52826,-5.0625 12.34335,-11.25 z"
         id="path2" />
    </g>
  </g>
</svg>
